<svg width="46" height="46" viewBox="0 0 46 46" fill="none" xmlns="http://www.w3.org/2000/svg">
<path d="M18.009 26.9441L30.734 24.5817V17.4781H15.459" stroke="black" stroke-width="1.91" stroke-miterlimit="10"/>
<path d="M12.4326 15.1158H14.8243L17.9993 26.9441L16.6159 29.0008C16.4835 29.2022 16.414 29.4378 16.4159 29.6782C16.4159 29.998 16.5441 30.3047 16.7723 30.5309C17.0005 30.7571 17.3099 30.8841 17.6326 30.8841H27.5493" stroke="black" stroke-width="1.91" stroke-miterlimit="10"/>
<path d="M27.5495 32.4618C27.9867 32.4618 28.3411 32.1105 28.3411 31.6771C28.3411 31.2437 27.9867 30.8924 27.5495 30.8924C27.1122 30.8924 26.7578 31.2437 26.7578 31.6771C26.7578 32.1105 27.1122 32.4618 27.5495 32.4618Z" stroke="black" stroke-width="1.91" stroke-miterlimit="10"/>
<path d="M19.5915 32.4618C20.0287 32.4618 20.3831 32.1105 20.3831 31.6771C20.3831 31.2437 20.0287 30.8924 19.5915 30.8924C19.1542 30.8924 18.7998 31.2437 18.7998 31.6771C18.7998 32.1105 19.1542 32.4618 19.5915 32.4618Z" stroke="black" stroke-width="1.91" stroke-miterlimit="10"/>
<rect x="24" width="22" height="22" rx="11" fill="#FF510B"/>
<path d="M33.2676 11.15C33.2676 11.5973 33.3116 12.0117 33.3996 12.393C33.4876 12.767 33.6159 13.0933 33.7846 13.372C33.9532 13.6433 34.1549 13.856 34.3896 14.01C34.6316 14.1567 34.8992 14.23 35.1926 14.23C35.4932 14.23 35.7609 14.1567 35.9956 14.01C36.2302 13.856 36.4319 13.6433 36.6006 13.372C36.7692 13.0933 36.8976 12.767 36.9856 12.393C37.0736 12.0117 37.1176 11.5973 37.1176 11.15C37.1176 10.7027 37.0736 10.292 36.9856 9.918C36.8976 9.53667 36.7692 9.21033 36.6006 8.939C36.4319 8.66033 36.2302 8.44767 35.9956 8.301C35.7609 8.147 35.4932 8.07 35.1926 8.07C34.8992 8.07 34.6316 8.147 34.3896 8.301C34.1549 8.44767 33.9532 8.66033 33.7846 8.939C33.6159 9.21033 33.4876 9.53667 33.3996 9.918C33.3116 10.292 33.2676 10.7027 33.2676 11.15ZM32.3326 11.15C32.3326 10.38 32.4536 9.698 32.6956 9.104C32.9376 8.51 33.2712 8.04433 33.6966 7.707C34.1292 7.36233 34.6279 7.19 35.1926 7.19C35.7572 7.19 36.2522 7.36233 36.6776 7.707C37.1102 8.04433 37.4476 8.51 37.6896 9.104C37.9316 9.698 38.0526 10.38 38.0526 11.15C38.0526 11.92 37.9316 12.602 37.6896 13.196C37.4476 13.79 37.1102 14.2593 36.6776 14.604C36.2522 14.9413 35.7572 15.11 35.1926 15.11C34.6279 15.11 34.1292 14.9413 33.6966 14.604C33.2712 14.2593 32.9376 13.79 32.6956 13.196C32.4536 12.602 32.3326 11.92 32.3326 11.15Z" fill="white"/>
</svg>
