<svg width="46" height="46" viewBox="0 0 46 46" fill="none" xmlns="http://www.w3.org/2000/svg">
<path d="M14.4102 24.78L14.0802 24.4529C13.5766 23.9557 13.1767 23.365 12.9034 22.7146C12.6301 22.0641 12.4887 21.3667 12.4873 20.6622C12.4845 19.2392 13.052 17.8734 14.0652 16.8653C15.0783 15.8571 16.454 15.2892 17.8896 15.2864C19.3252 15.2836 20.7031 15.8462 21.7202 16.8504L23.0002 18.139L24.2802 16.8504C24.7772 16.3356 25.3728 15.9243 26.0323 15.6406C26.6918 15.357 27.4017 15.2067 28.1205 15.1986C28.8394 15.1905 29.5526 15.3247 30.2184 15.5935C30.8842 15.8622 31.4891 16.26 31.9978 16.7635C32.5064 17.267 32.9085 17.8661 33.1805 18.5257C33.4525 19.1853 33.5889 19.892 33.5816 20.6045C33.5744 21.317 33.4237 22.0209 33.1384 22.675C32.8531 23.329 32.4389 23.92 31.9202 24.4133L31.5902 24.7403L23.0002 33.2746L17.0702 27.3968L14.4102 24.78Z" stroke="black" stroke-width="1.91" stroke-miterlimit="10"/>
<rect x="24" width="22" height="22" rx="11" fill="#FF510B"/>
<path d="M33.2676 11.15C33.2676 11.5973 33.3116 12.0117 33.3996 12.393C33.4876 12.767 33.6159 13.0933 33.7846 13.372C33.9532 13.6433 34.1549 13.856 34.3896 14.01C34.6316 14.1567 34.8992 14.23 35.1926 14.23C35.4932 14.23 35.7609 14.1567 35.9956 14.01C36.2302 13.856 36.4319 13.6433 36.6006 13.372C36.7692 13.0933 36.8976 12.767 36.9856 12.393C37.0736 12.0117 37.1176 11.5973 37.1176 11.15C37.1176 10.7027 37.0736 10.292 36.9856 9.918C36.8976 9.53667 36.7692 9.21033 36.6006 8.939C36.4319 8.66033 36.2302 8.44767 35.9956 8.301C35.7609 8.147 35.4932 8.07 35.1926 8.07C34.8992 8.07 34.6316 8.147 34.3896 8.301C34.1549 8.44767 33.9532 8.66033 33.7846 8.939C33.6159 9.21033 33.4876 9.53667 33.3996 9.918C33.3116 10.292 33.2676 10.7027 33.2676 11.15ZM32.3326 11.15C32.3326 10.38 32.4536 9.698 32.6956 9.104C32.9376 8.51 33.2712 8.04433 33.6966 7.707C34.1292 7.36233 34.6279 7.19 35.1926 7.19C35.7572 7.19 36.2522 7.36233 36.6776 7.707C37.1102 8.04433 37.4476 8.51 37.6896 9.104C37.9316 9.698 38.0526 10.38 38.0526 11.15C38.0526 11.92 37.9316 12.602 37.6896 13.196C37.4476 13.79 37.1102 14.2593 36.6776 14.604C36.2522 14.9413 35.7572 15.11 35.1926 15.11C34.6279 15.11 34.1292 14.9413 33.6966 14.604C33.2712 14.2593 32.9376 13.79 32.6956 13.196C32.4536 12.602 32.3326 11.92 32.3326 11.15Z" fill="white"/>
</svg>
